<svg width="62" height="62" viewBox="0 0 62 62" fill="none" xmlns="http://www.w3.org/2000/svg">
<circle cx="31" cy="31" r="31" fill="#D9D9D9"/>
<path d="M44.5 28.25C44.5 38 31.5 47.75 31.5 47.75C31.5 47.75 18.5 38 18.5 28.25C18.5 24.8022 19.8696 21.4956 22.3076 19.0576C24.7456 16.6196 28.0522 15.25 31.5 15.25C34.9478 15.25 38.2544 16.6196 40.6924 19.0576C43.1304 21.4956 44.5 24.8022 44.5 28.25V28.25Z" stroke="#212121" stroke-width="3" stroke-linecap="round" stroke-linejoin="round"/>
<path d="M31.5 33.125C34.1924 33.125 36.375 30.9424 36.375 28.25C36.375 25.5576 34.1924 23.375 31.5 23.375C28.8076 23.375 26.625 25.5576 26.625 28.25C26.625 30.9424 28.8076 33.125 31.5 33.125Z" stroke="#212121" stroke-width="3" stroke-linecap="round" stroke-linejoin="round"/>
</svg>
