<svg width="50" height="50" viewBox="0 0 50 50" fill="none" xmlns="http://www.w3.org/2000/svg">
<path d="M24.9956 8C25.4738 7.99879 25.9111 8.26665 26.1237 8.69091L31.0158 18.4543L41.9254 20.03C42.3977 20.0983 42.7902 20.4259 42.9381 20.8754C43.0861 21.325 42.9639 21.8188 42.6228 22.1496L34.6881 29.8467L36.5728 40.5422C36.6553 41.0106 36.4611 41.4845 36.0724 41.7634C35.6837 42.0423 35.1685 42.0774 34.745 41.8538L24.9989 36.7084L15.2549 41.8538C14.8311 42.0775 14.3156 42.0423 13.9268 41.763C13.5381 41.4837 13.3442 41.0092 13.4273 40.5407L15.3257 29.8467L7.37795 22.1504C7.03633 21.8196 6.91381 21.3254 7.06184 20.8755C7.20988 20.4255 7.60283 20.0978 8.07563 20.0299L19.0448 18.4544L23.8711 8.69664C24.0815 8.27131 24.5174 8.00122 24.9956 8Z" fill="#EEEEEE"/>
</svg>
