<svg xmlns="http://www.w3.org/2000/svg" width="643.806" height="411.58" viewBox="0 0 643.806 411.58">
  <g id="img_repair_no" transform="translate(0.375 -5.457)">
    <g id="그룹_8709" data-name="그룹 8709" transform="translate(0 0)">
      <g id="레이어_3" data-name="레이어 3" transform="translate(0 5.837)">
        <path id="패스_12391" data-name="패스 12391" d="M333.481,107s-16,1.691-21.074,5.464c-2.384,1.773-3.938,3.522-4.549,6.474-.306,1.483-.223,3.673.873,4.474a5.367,5.367,0,0,0,2.073.726,44.329,44.329,0,0,0,5.912.791,115.6,115.6,0,0,0,16.375-.172Z" transform="translate(170.473 51.222)" fill="#f6f6f6" stroke="#21336a" stroke-width="0.75"/>
        <path id="패스_12392" data-name="패스 12392" d="M396.884,107s16,1.691,21.072,5.464c2.385,1.773,3.94,3.522,4.549,6.474.306,1.483.225,3.673-.871,4.474a5.367,5.367,0,0,1-2.073.726,44.328,44.328,0,0,1-5.912.791,115.6,115.6,0,0,1-16.375-.172Z" transform="translate(220.341 51.222)" fill="#f6f6f6" stroke="#21336a" stroke-width="0.75"/>
        <path id="패스_12393" data-name="패스 12393" d="M75.295,161.7" transform="translate(40.649 81.615)" fill="none" stroke="#21336a" stroke-width="0.75"/>
        <g id="그룹_8704" data-name="그룹 8704" transform="translate(0 94.041)">
          <circle id="타원_557" data-name="타원 557" cx="22.375" cy="22.375" r="22.375" fill="#dfdfdf" stroke="#21336a" stroke-width="0.75"/>
          <circle id="타원_558" data-name="타원 558" cx="9.789" cy="9.789" r="9.789" transform="translate(12.586 12.586)" fill="#f6f6f6" stroke="#21336a" stroke-width="0.75"/>
        </g>
        <g id="그룹_8705" data-name="그룹 8705" transform="translate(0 282.059)">
          <circle id="타원_559" data-name="타원 559" cx="22.375" cy="22.375" r="22.375" fill="#dfdfdf" stroke="#21336a" stroke-width="0.75"/>
          <circle id="타원_560" data-name="타원 560" cx="9.789" cy="9.789" r="9.789" transform="translate(12.586 12.586)" fill="#f6f6f6" stroke="#21336a" stroke-width="0.75"/>
        </g>
        <path id="패스_12394" data-name="패스 12394" d="M38.353,43.208H21.124c-7.615,0-9.708,10.106-9.708,15.99V73.323a56.556,56.556,0,0,1,12.772,1.191c12.293,2.86,21.425,13.494,21.425,26.178,0,14.873-12.558,26.931-28.05,26.931H15.417V261.8l.119.006a50.425,50.425,0,0,1,8.653,1.092c12.293,2.841,21.425,13.413,21.425,26.02,0,14.53-12.128,26.355-27.248,26.76.229,3.456.539,6.908.88,10.353a186.981,186.981,0,0,0,2.607,18.832c.548,2.7,1.055,5.84,2.529,8.243a9.683,9.683,0,0,0,7.54,4.328s31.178,2.912,44.5-5.7c0,0,3.631-1.488,5.712-8.024l5.919-18.123a10.6,10.6,0,0,1,.976-1.98l12.032-22.031c3.89-8.492,7.387-17.2,10.439-26.026a143.682,143.682,0,0,0,7.738-49.192c-.033-1.53-.1-3.058-.225-4.584,0,0,0-23.559-3.642-41.163a42.232,42.232,0,0,0-4.852-12.714s-14.532-21.33-32.613-39.193c0,0-.2-17.54-3.8-28.235-1.75-6.654-3.857-13.237-6.189-19.71a170.78,170.78,0,0,0-9.233-20.381c-2.626-5.082-6-9.966-10.562-13.514,0,0-3.806-3.67-8.18-3.666Z" transform="translate(4.812 16.059)" fill="#f6f6f6" stroke="#21336a" stroke-width="0.75"/>
        <path id="패스_12395" data-name="패스 12395" d="M26.3,43.206S21.719,46.4,20.256,55.471a86.389,86.389,0,0,0-.546,19.2" transform="translate(9.29 16.061)" fill="none" stroke="#21336a" stroke-width="0.75"/>
        <line id="선_707" data-name="선 707" y2="137.496" transform="translate(30.815 142.043)" fill="none" stroke="#21336a" stroke-width="0.75"/>
        <path id="창문" d="M108.048,252.5s18.833,18.667,27.167,34.667c0,0,5.333,16.666,6,31.166L108.048,315.5Z" transform="translate(-27.021 -93.669)" fill="#fff"/>
        <path id="창문-2" data-name="창문" d="M108.048,325.5h33.167s9.833,39.25-13.667,66.5c0,0-12,5.75-19.5,3.75Z" transform="translate(-27.048 -94.336)" fill="#fff"/>
        <path id="패스_12396" data-name="패스 12396" d="M20.761,100.333l9.1.651s14.7,1.171,23.937,0c0,0,6.374-1.431,10.537,2.342,0,0,5.723,3.773,6.634,6.9V255.135" transform="translate(10.054 47.211)" fill="none" stroke="#21336a" stroke-width="0.75"/>
        <path id="패스_12397" data-name="패스 12397" d="M31.655,243.02,55.1,249.7s11.065,4.032,21.341.91l7.676-2.471s17.195-17.493,15.735-54.23c0,0-.807-19.886-2.857-30.032s-3.317-17.316-5.951-22.708A182.019,182.019,0,0,0,64.861,107" transform="translate(16.166 50.924)" fill="none" stroke="#21336a" stroke-width="0.75"/>
        <path id="패스_12398" data-name="패스 12398" d="M54.618,98.25s.52,9.009-1.691,13.139" transform="translate(28.1 46.374)" fill="none" stroke="#21336a" stroke-width="0.75"/>
        <path id="패스_12399" data-name="패스 12399" d="M21.949,217.426s1.823,24.411,5.465,43.935" transform="translate(10.721 112.241)" fill="none" stroke="#21336a" stroke-width="0.75"/>
        <line id="선_708" data-name="선 708" x2="7.763" y2="14.051" transform="translate(100.279 298.817)" fill="none" stroke="#21336a" stroke-width="0.75"/>
        <rect id="사각형_3822" data-name="사각형 3822" width="6.098" height="19.074" rx="1.953" transform="translate(70.669 267.835)" fill="none" stroke="#21336a" stroke-width="0.75"/>
        <rect id="사각형_3823" data-name="사각형 3823" width="6.098" height="19.074" rx="1.953" transform="translate(70.669 203.31)" fill="none" stroke="#21336a" stroke-width="0.75"/>
        <path id="패스_12400" data-name="패스 12400" d="M26.962,144.909s7.229.532,12.629,9.313a4.733,4.733,0,0,0,2.8,2.081s5.852,2.1,25.106,1.83" transform="translate(13.533 72.266)" fill="none" stroke="#21336a" stroke-width="0.75"/>
        <line id="선_709" data-name="선 709" x2="34.473" y2="0.518" transform="translate(81.027 231.145)" fill="none" stroke="#21336a" stroke-width="0.75"/>
        <line id="선_710" data-name="선 710" x2="33.473" y2="2.788" transform="translate(81.027 221.875)" fill="none" stroke="#21336a" stroke-width="0.75"/>
        <g id="그룹_8706" data-name="그룹 8706" transform="translate(411.837 94.041)">
          <circle id="타원_561" data-name="타원 561" cx="22.375" cy="22.375" r="22.375" fill="#dfdfdf" stroke="#21336a" stroke-width="0.75"/>
          <circle id="타원_562" data-name="타원 562" cx="9.789" cy="9.789" r="9.789" transform="translate(12.586 12.586)" fill="#f6f6f6" stroke="#21336a" stroke-width="0.75"/>
        </g>
        <g id="그룹_8707" data-name="그룹 8707" transform="translate(411.837 282.059)">
          <circle id="타원_563" data-name="타원 563" cx="22.375" cy="22.375" r="22.375" fill="#dfdfdf" stroke="#21336a" stroke-width="0.75"/>
          <circle id="타원_564" data-name="타원 564" cx="9.789" cy="9.789" r="9.789" transform="translate(12.586 12.586)" fill="#f6f6f6" stroke="#21336a" stroke-width="0.75"/>
        </g>
        <path id="패스_12401" data-name="패스 12401" d="M295.261,43.208H312.49c7.615,0,9.708,10.106,9.708,15.99V73.323a56.533,56.533,0,0,0-12.771,1.191C297.133,77.374,288,88.008,288,100.693c0,14.873,12.558,26.931,28.05,26.931H318.2V261.8l-.119.006a50.392,50.392,0,0,0-8.653,1.092C297.133,265.739,288,276.31,288,288.917c0,14.53,12.126,26.355,27.246,26.76-.229,3.456-.538,6.908-.88,10.353a187.423,187.423,0,0,1-2.605,18.832c-.549,2.7-1.055,5.84-2.529,8.243a9.685,9.685,0,0,1-7.54,4.328s-31.178,2.912-44.5-5.7c0,0-3.631-1.488-5.712-8.024l-5.919-18.123a10.6,10.6,0,0,0-.976-1.98L232.553,301.58c-3.89-8.492-7.385-17.2-10.439-26.026a143.683,143.683,0,0,1-7.738-49.192c.033-1.53.1-3.058.225-4.584,0,0,0-23.559,3.642-41.163A42.233,42.233,0,0,1,223.1,167.9s14.532-21.33,32.613-39.193c0,0,.2-17.54,3.806-28.235,1.748-6.654,3.856-13.237,6.188-19.71a171.276,171.276,0,0,1,9.233-20.381c2.626-5.082,6-9.966,10.563-13.514,0,0,3.8-3.67,8.178-3.666Z" transform="translate(118.208 16.059)" fill="#f6f6f6" stroke="#21336a" stroke-width="0.75"/>
        <path id="패스_12402" data-name="패스 12402" d="M271.031,43.206s4.585,3.191,6.049,12.265a86.5,86.5,0,0,1,.546,19.2" transform="translate(149.98 16.061)" fill="none" stroke="#21336a" stroke-width="0.75"/>
        <line id="선_711" data-name="선 711" y2="137.496" transform="translate(425.79 142.043)" fill="none" stroke="#21336a" stroke-width="0.75"/>
        <path id="창문-3" data-name="창문" d="M141.215,252.5s-18.833,18.667-27.167,34.667c0,0-5.333,16.666-6,31.166l33.167-2.833Z" transform="translate(233.966 -93.669)" fill="#fff"/>
        <path id="창문-4" data-name="창문" d="M143.256,325.5H110.089s-9.833,39.25,13.667,66.5c0,0,12,5.75,19.5,3.75Z" transform="translate(231.952 -94.336)" fill="#fff"/>
        <path id="패스_12403" data-name="패스 12403" d="M292.139,100.333l-9.105.651s-14.7,1.171-23.935,0c0,0-6.375-1.431-10.537,2.342,0,0-5.724,3.773-6.634,6.9V255.135" transform="translate(133.673 47.211)" fill="none" stroke="#21336a" stroke-width="0.75"/>
        <path id="패스_12404" data-name="패스 12404" d="M287.738,243.02,264.3,249.7s-11.065,4.032-21.341.91l-7.676-2.471s-17.195-17.493-15.735-54.23c0,0,.809-19.886,2.857-30.032s3.317-17.316,5.952-22.708A181.937,181.937,0,0,1,254.533,107" transform="translate(121.096 50.924)" fill="none" stroke="#21336a" stroke-width="0.75"/>
        <path id="패스_12405" data-name="패스 12405" d="M240.862,98.25s-.52,9.009,1.692,13.139" transform="translate(133.082 46.374)" fill="none" stroke="#21336a" stroke-width="0.75"/>
        <path id="패스_12406" data-name="패스 12406" d="M274.869,217.426s-1.823,24.411-5.465,43.935" transform="translate(149.071 112.241)" fill="none" stroke="#21336a" stroke-width="0.75"/>
        <line id="선_712" data-name="선 712" x1="7.763" y2="14.051" transform="translate(348.645 298.817)" fill="none" stroke="#21336a" stroke-width="0.75"/>
        <rect id="사각형_3824" data-name="사각형 3824" width="6.098" height="19.074" rx="1.953" transform="translate(385.984 286.909) rotate(180)" fill="none" stroke="#21336a" stroke-width="0.75"/>
        <rect id="사각형_3825" data-name="사각형 3825" width="6.098" height="19.074" rx="1.953" transform="translate(385.984 222.384) rotate(180)" fill="none" stroke="#21336a" stroke-width="0.75"/>
        <path id="패스_12407" data-name="패스 12407" d="M282.459,144.909s-7.231.532-12.629,9.313a4.733,4.733,0,0,1-2.8,2.081s-5.854,2.1-25.106,1.83" transform="translate(133.68 72.266)" fill="none" stroke="#21336a" stroke-width="0.75"/>
        <line id="선_713" data-name="선 713" x1="34.147" transform="translate(341.5 231.145)" fill="none" stroke="#21336a" stroke-width="0.75"/>
        <line id="선_714" data-name="선 714" x1="33.148" y2="2.788" transform="translate(342.5 221.875)" fill="none" stroke="#21336a" stroke-width="0.75"/>
        <path id="패스_12408" data-name="패스 12408" d="M172.7,25.453c4.683,0,9.171.292,9.171.292a55.474,55.474,0,0,1,15.61,3.9,178.761,178.761,0,0,0,23.61,7.708c7.415,1.853,11.122,0,11.122,0a6.154,6.154,0,0,0,3.968-5.3v-6.5s-.521-7.285-11.188-12.1c0,0-14.179-7.025-35.384-7.676,0,0-10.147-.649-16.911-.52h-2.374c-6.764-.13-16.911.52-16.911.52-21.2.651-35.384,7.676-35.384,7.676-10.666,4.813-11.188,12.1-11.188,12.1v6.5a6.154,6.154,0,0,0,3.968,5.3s3.707,1.853,11.122,0a178.761,178.761,0,0,0,23.61-7.708,55.474,55.474,0,0,1,15.61-3.9s4.488-.292,9.171-.292Z" transform="translate(58.115 -5.239)" fill="#f6f6f6" stroke="#21336a" stroke-width="0.75"/>
        <path id="패스_12409" data-name="패스 12409" d="M108.449,30.867a7.6,7.6,0,0,1,1.836-6.883,24.833,24.833,0,0,1,3.793-3.234,32.289,32.289,0,0,1,10.073-4.7c2.688-.737,5.89-1.1,8.576-.094A10.909,10.909,0,0,1,137,19.177a15.871,15.871,0,0,1,3.156,6.622" transform="translate(58.956 0.425)" fill="none" stroke="#21336a" stroke-width="0.75"/>
        <circle id="타원_565" data-name="타원 565" cx="4.738" cy="4.738" r="4.738" transform="translate(182.475 18.066)" fill="none" stroke="#21336a" stroke-width="0.75"/>
        <path id="패스_12410" data-name="패스 12410" d="M199.276,30.867a7.6,7.6,0,0,0-1.836-6.883,24.758,24.758,0,0,0-3.793-3.234,32.3,32.3,0,0,0-10.072-4.7c-2.69-.737-5.891-1.1-8.578-.094a10.909,10.909,0,0,0-4.271,3.225A15.871,15.871,0,0,0,167.57,25.8" transform="translate(92.109 0.425)" fill="none" stroke="#21336a" stroke-width="0.75"/>
        <circle id="타원_566" data-name="타원 566" cx="4.738" cy="4.738" r="4.738" transform="translate(266.832 18.066)" fill="none" stroke="#21336a" stroke-width="0.75"/>
        <rect id="사각형_3826" data-name="사각형 3826" width="101.336" height="14.57" rx="2" transform="translate(177.442 38.522)" fill="none" stroke="#21336a" stroke-width="0.75" stroke-dasharray="5 2 5 2"/>
        <path id="패스_12411" data-name="패스 12411" d="M120.082,212.592s38.913,10.877,84.086,0" transform="translate(65.534 109.85)" fill="none" stroke="#21336a" stroke-width="0.75"/>
        <path id="패스_12412" data-name="패스 12412" d="M112.247,95.973s11.208,17.733,12.508,35.036c0,0,.651,8.586.651,11.837" transform="translate(61.18 45.06)" fill="none" stroke="#21336a" stroke-width="0.75"/>
        <path id="패스_12413" data-name="패스 12413" d="M171.248,350.463c10.6,0,25.693-.971,25.693-.971,15.657-.742,28.048-9.9,32.847-24.828,3.954-12.305,5.179-25.943,5.008-38.835a25.759,25.759,0,0,0-1.951-7.657c-3.122-4.731-2.146-30.214-2.146-30.214.2-9.707,1.756-49.634,1.756-49.634.781-13.138,1.236-29.9,1.236-29.9l0-75c.066-11.066-2.245-17.278-2.245-17.278a28.384,28.384,0,0,0-2.618-5.52c-11.024-18.109-37.53-26.9-57.578-26.465h-1.561c-20.047-.435-46.554,8.356-57.578,26.465a28.38,28.38,0,0,0-2.616,5.52s-2.31,6.212-2.246,17.278l0,75s.457,16.76,1.238,29.9c0,0,1.561,39.927,1.756,49.634,0,0,.976,25.483-2.146,30.214a25.758,25.758,0,0,0-1.951,7.657c-.173,12.892,1.052,26.53,5.008,38.835,4.8,14.928,17.19,24.086,32.847,24.828,0,0,15.09.971,25.691.971Z" transform="translate(57.714 16.589)" fill="#f6f6f6" stroke="#21336a" stroke-width="0.75"/>
        <path id="패스_12414" data-name="패스 12414" d="M229.727,299.717c-11.73-7.259-18.554-20.388-18.554-20.388-2.146-4.1-2.342-15.56-2.342-15.56-2.537-60.44,1.756-87.609,1.756-87.609a186.733,186.733,0,0,1,3.317-20.737c2.146-7.025,2.341-10.147,2.341-10.147a120.962,120.962,0,0,1,5.571-24.219c1.83-5.034,4.307-11.394,8.364-14.872.315-.272,2.568-2.217,3.106-1.886-27.643-16.976-62.442-15.025-62.442-15.025h-1.561s-34.8-1.951-62.441,15.025c.539-.331,2.79,1.614,3.106,1.886,4.057,3.478,6.534,9.838,8.364,14.872a120.959,120.959,0,0,1,5.571,24.219s.2,3.122,2.342,10.147a186.735,186.735,0,0,1,3.317,20.737s4.293,27.17,1.756,87.609c0,0-.2,11.463-2.342,15.56,0,0-6.825,13.13-18.554,20.388" transform="translate(58.116 40.855)" fill="none" stroke="#21336a" stroke-width="0.75"/>
        <path id="패스_12415" data-name="패스 12415" d="M384.185,43.219c20.048-.443,46.554,8.495,57.578,26.9a29.119,29.119,0,0,1,2.618,5.612s2.31,6.316,2.245,17.563l0,76.24s.162,4.548-1.889,7.71a15.864,15.864,0,0,0-2.8,6.434c-.122.907-.218,1.819-.306,2.729-.156,1.6-.279,3.211-.39,4.818-.167,2.437-.3,4.874-.409,7.314q-.234,5.1-.365,10.217-.185,6.761-.259,13.529-.077,6.6-.084,13.206-.009,1.184-.008,2.367,0,3.054.027,6.106.037,4.177.134,8.353c.073,3.035.172,6.072.319,9.105.136,2.793.3,5.586.574,8.369a47.476,47.476,0,0,0,.7,5.123,11.535,11.535,0,0,0,2.193,4.408,15.944,15.944,0,0,1,2.165,4.239,22.774,22.774,0,0,1,.773,7.288q.007,3.635-.147,7.268a127.6,127.6,0,0,1-1.439,14.667,89.751,89.751,0,0,1-3.389,14.152q-.26.781-.537,1.556c-5.473,15.292-16.734,21.758-32.229,25.306-6.683,1.53-17.4,1.193-25.068,1.53h-1.561a188.471,188.471,0,0,1-25.075-1.53c-15.724-2.339-26.754-10.014-32.229-25.306q-.276-.776-.537-1.556a89.75,89.75,0,0,1-3.387-14.152,127.6,127.6,0,0,1-1.439-14.667q-.157-3.632-.147-7.268a22.775,22.775,0,0,1,.773-7.288,15.9,15.9,0,0,1,2.165-4.239,11.559,11.559,0,0,0,2.193-4.408,47.47,47.47,0,0,0,.7-5.123c.27-2.783.44-5.576.574-8.369.147-3.033.247-6.07.318-9.105q.1-4.177.136-8.353.028-3.052.027-6.106,0-1.184-.008-2.367-.009-6.6-.086-13.206-.08-6.766-.258-13.529c-.094-3.408-.209-6.814-.365-10.217-.112-2.44-.244-4.877-.411-7.314-.109-1.608-.234-3.214-.389-4.818-.089-.91-.186-1.822-.306-2.729a15.885,15.885,0,0,0-2.8-6.434c-2.051-3.162-1.89-7.71-1.89-7.71l0-76.24c-.064-11.247,2.245-17.563,2.245-17.563a29.212,29.212,0,0,1,2.618-5.612c11.024-18.406,37.53-27.343,57.578-26.9Z" transform="translate(177.102 16.059)" fill="#fff" stroke="#21336a" stroke-width="0.75"/>
        <path id="패스_12416" data-name="패스 12416" d="M399.283,195.053" transform="translate(221.687 100.129)" fill="none" stroke="#21336a" stroke-width="0.75"/>
        <path id="패스_12417" data-name="패스 12417" d="M218.609,117.375s-.923,61.283-1.822,79.807c0,0-1.716,35.48-4.057,45.368,0,0-.025.584-.61-.294-2.894-4.343-8.687-5.485-13.534-6.325a131.322,131.322,0,0,0-14.88-1.525c-5.574-.32-11.158-.448-16.742-.475H165.4c-5.582.027-11.166.155-16.74.475a131.386,131.386,0,0,0-14.881,1.525c-4.847.84-10.638,1.982-13.534,6.325-.585.877-.609.294-.609.294-2.342-9.888-4.057-45.368-4.057-45.368-.9-18.525-1.822-79.807-1.822-79.807" transform="translate(61.992 56.719)" fill="none" stroke="#21336a" stroke-width="0.75"/>
        <path id="패스_12418" data-name="패스 12418" d="M204.823,212.592s-38.912,10.877-84.084,0" transform="translate(65.902 109.85)" fill="none" stroke="#21336a" stroke-width="0.75"/>
        <path id="패스_12419" data-name="패스 12419" d="M186.34,95.719s-11.208,17.733-12.508,35.036c0,0-.651,8.586-.651,11.837" transform="translate(95.256 44.919)" fill="none" stroke="#21336a" stroke-width="0.75"/>
        <path id="패스_12420" data-name="패스 12420" d="M209.243,129.642s-4.168-4.507-21.078-5.158l-23.676-.651h-1.561l-23.674.651c-16.912.651-21.08,5.158-21.08,5.158" transform="translate(64.464 60.584)" fill="none" stroke="#21336a" stroke-width="0.75"/>
        <path id="패스_12421" data-name="패스 12421" d="M107.928,193.81a12.728,12.728,0,0,0,6.762,1.608s4.386.29,7.039-2.554" transform="translate(58.764 98.907)" fill="none" stroke="#21336a" stroke-width="0.75"/>
        <path id="패스_12422" data-name="패스 12422" d="M191.718,193.81a12.718,12.718,0,0,1-6.761,1.608s-4.388.29-7.04-2.554" transform="translate(97.904 98.907)" fill="none" stroke="#21336a" stroke-width="0.75"/>
        <path id="패스_12423" data-name="패스 12423" d="M166.441,280.082c5.5-.218,21.464-1.822,21.464-1.822,10.453-.731,26.706-3.757,29.539-16.161a25.694,25.694,0,0,0,.51-5.823c0-3.562-6.282-4.632-8.86-5.117a60.06,60.06,0,0,0-11.954-.737h-61.4a60.06,60.06,0,0,0-11.954.737c-2.579.485-8.859,1.555-8.859,5.117a25.784,25.784,0,0,0,.509,5.823c2.835,12.4,19.087,15.431,29.541,16.161C144.977,278.26,160.937,279.864,166.441,280.082Z" transform="translate(62.645 130.744)" fill="#f6f6f6" stroke="#21336a" stroke-width="0.75"/>
        <rect id="사각형_3827" data-name="사각형 3827" width="17.924" height="36.294" rx="2" transform="translate(506.755 89.945)" fill="#f6f6f6" stroke="#21336a" stroke-width="0.75"/>
        <path id="패스_12424" data-name="패스 12424" d="M363.5,84.629h-6.9V66.22a3.131,3.131,0,0,0-3.122-3.122h-7.935a3.131,3.131,0,0,0-3.122,3.122v56.173a3.131,3.131,0,0,0,3.122,3.122h7.935a3.177,3.177,0,0,0,.347-.034,1.616,1.616,0,0,0,.173.034h9.5a1.566,1.566,0,0,0,1.561-1.561V86.19A1.566,1.566,0,0,0,363.5,84.629Z" transform="translate(189.789 26.818)" fill="#f6f6f6" stroke="#21336a" stroke-width="0.75"/>
        <rect id="사각형_3828" data-name="사각형 3828" width="17.924" height="36.294" rx="2" transform="translate(615.958 126.238) rotate(-180)" fill="#f6f6f6" stroke="#21336a" stroke-width="0.75"/>
        <path id="패스_12425" data-name="패스 12425" d="M366.735,84.629h6.9V66.22a3.131,3.131,0,0,1,3.122-3.122h7.935a3.131,3.131,0,0,1,3.122,3.122v56.173a3.131,3.131,0,0,1-3.122,3.122h-7.935a3.2,3.2,0,0,1-.348-.034,1.548,1.548,0,0,1-.173.034h-9.5a1.566,1.566,0,0,1-1.561-1.561V86.19A1.566,1.566,0,0,1,366.735,84.629Z" transform="translate(202.551 26.818)" fill="#f6f6f6" stroke="#21336a" stroke-width="0.75"/>
        <rect id="사각형_3829" data-name="사각형 3829" width="90.005" height="15.74" rx="2" transform="translate(515.579 158.226)" fill="#f6f6f6" stroke="#21336a" stroke-width="0.75"/>
        <rect id="사각형_3830" data-name="사각형 3830" width="104.849" height="13.659" rx="2" transform="translate(507.89 182.46)" fill="#f6f6f6" stroke="#21336a" stroke-width="0.75"/>
        <rect id="사각형_3831" data-name="사각형 3831" width="81.197" height="51.737" rx="1" transform="translate(520.712 204.18)" fill="#f6f6f6" stroke="#21336a" stroke-width="0.75"/>
        <rect id="사각형_3832" data-name="사각형 3832" width="97.131" height="15.299" rx="2" transform="translate(513.005 262.195)" fill="#f6f6f6" stroke="#21336a" stroke-width="0.75"/>
        <rect id="사각형_3833" data-name="사각형 3833" width="51.644" height="49.172" rx="2" transform="translate(534.687 288.86)" fill="#f6f6f6" stroke="#21336a" stroke-width="0.75"/>
        <rect id="사각형_3834" data-name="사각형 3834" width="16.596" height="36.294" rx="2" transform="translate(510.681 305.743)" fill="#f6f6f6" stroke="#21336a" stroke-width="0.75"/>
        <rect id="사각형_3835" data-name="사각형 3835" width="16.596" height="36.294" rx="2" transform="translate(596.484 305.743)" fill="#f6f6f6" stroke="#21336a" stroke-width="0.75"/>
        <rect id="사각형_3836" data-name="사각형 3836" width="88.033" height="15.638" rx="2" transform="translate(517.646 346.925)" fill="#f6f6f6" stroke="#21336a" stroke-width="0.75"/>
        <path id="패스_12426" data-name="패스 12426" d="M124.226,195.364a48.579,48.579,0,0,1,5.972-1.322,131.393,131.393,0,0,1,14.881-1.525c5.574-.32,11.158-.448,16.74-.475h1.561c5.584.027,11.168.155,16.742.475A131.329,131.329,0,0,1,195,194.042a49.086,49.086,0,0,1,5.933,1.31l.039.016q.159,5.17.392,10.709s.2,11.463,2.342,15.56c0,0,.442.849,1.293,2.237l0,0s-39.694,10.918-84.8.1l-.048-.011c.887-1.439,1.347-2.324,1.347-2.324,2.146-4.1,2.342-15.56,2.342-15.56q.232-5.54.392-10.709" transform="translate(65.57 98.349)" fill="#fff" stroke="#21336a" stroke-width="0.75"/>
        <path id="패스_12427" data-name="패스 12427" d="M207.375,146.375c-3.23-1.1-8.264-2.171-15.885-2.465l-23.676-.651h-1.561l-23.674.651c-8.72.336-14.052,1.7-17.171,2.936,0-3.252-.651-12.042-.651-12.042-1.3-17.3-12.508-35.036-12.508-35.036l0,0c25.8-12.074,54.007-10.493,54.007-10.493h1.561s27.276-1.53,52.713,9.9l.061.027s-11.269,17.9-12.569,35.207c0,0-.651,8.712-.651,11.964Z" transform="translate(61.144 41.291)" fill="#fff" stroke="#21336a" stroke-width="0.75"/>
        <path id="패스_12428" data-name="패스 12428" d="M127.809,241.889c-3.011.927-5.813,2.382-7.562,5-.585.877-.609.293-.609.293-2.342-9.887-4.057-45.368-4.057-45.368-.265-5.448-.531-14.592-.776-24.791-.587-24.478-1.046-55.017-1.046-55.017l.39-12.894,0,0c.1.262.19.521.284.776A120.958,120.958,0,0,1,120,134.108s.2,3.122,2.342,10.147a186.735,186.735,0,0,1,3.317,20.737s3.784,23.951,2.148,76.9" transform="translate(62.026 52.113)" fill="#fff" stroke="#21336a" stroke-width="0.75"/>
        <path id="패스_12429" data-name="패스 12429" d="M172.073,241.989c-1.636-52.95,2.148-76.9,2.148-76.9a186.734,186.734,0,0,1,3.317-20.737c2.146-7.025,2.342-10.147,2.342-10.147a120.962,120.962,0,0,1,5.571-24.219c.125-.343.251-.692.382-1.046l.29,13.167s-.46,30.537-1.046,55.015c-.245,10.2-.512,19.344-.776,24.792,0,0-1.716,35.48-4.057,45.368,0,0-.025.584-.61-.293-1.719-2.58-4.461-4.031-7.42-4.959" transform="translate(94.406 52.016)" fill="#fff" stroke="#21336a" stroke-width="0.75"/>
        <path id="패스_12430" data-name="패스 12430" d="M107.986,152.619h10.06l12.259,2.14" transform="translate(58.794 76.568)" fill="none" stroke="#21336a" stroke-width="0.75"/>
        <path id="패스_12431" data-name="패스 12431" d="M194.756,152.619H184.7l-12.259,2.14" transform="translate(94.835 76.568)" fill="none" stroke="#21336a" stroke-width="0.75"/>
        <g id="그룹_8708" data-name="그룹 8708" transform="translate(150.378 156.891)">
          <path id="패스_12432" data-name="패스 12432" d="M206.262,117.856c-.609-2.952-2.164-4.7-4.547-6.474-4.018-2.986-14.877-4.667-19.229-5.239-.646,1.483-1.222,2.961-1.745,4.374l.29,13.158a115.6,115.6,0,0,0,16.375.172,44.329,44.329,0,0,0,5.912-.791,5.366,5.366,0,0,0,2.073-.726C206.487,121.529,206.568,119.339,206.262,117.856Z" transform="translate(-50.796 -106.144)" fill="#eee" stroke="#21336a" stroke-width="0.75"/>
          <path id="패스_12433" data-name="패스 12433" d="M102.2,111.383c-2.384,1.772-3.938,3.522-4.549,6.474-.306,1.483-.223,3.673.873,4.474a5.366,5.366,0,0,0,2.073.726,44.329,44.329,0,0,0,5.912.791,115.6,115.6,0,0,0,16.375-.172l.289-13.158c-.521-1.413-1.1-2.891-1.745-4.374C117.075,106.715,106.217,108.4,102.2,111.383Z" transform="translate(-97.497 -106.144)" fill="#eee" stroke="#21336a" stroke-width="0.75"/>
        </g>
        <rect id="사각형_3837" data-name="사각형 3837" width="3.625" height="13.021" rx="1" transform="translate(172.93 210.79)" fill="none" stroke="#21336a" stroke-width="0.75"/>
        <rect id="사각형_3838" data-name="사각형 3838" width="3.625" height="13.021" rx="1" transform="matrix(0.998, -0.063, 0.063, 0.998, 175.116, 270.729)" fill="none" stroke="#21336a" stroke-width="0.75"/>
        <rect id="사각형_3839" data-name="사각형 3839" width="3.625" height="13.021" rx="1" transform="translate(283.381 223.811) rotate(-180)" fill="none" stroke="#21336a" stroke-width="0.75"/>
        <rect id="사각형_3840" data-name="사각형 3840" width="3.625" height="13.021" rx="1" transform="matrix(-0.998, -0.063, 0.063, -0.998, 280.381, 283.724)" fill="none" stroke="#21336a" stroke-width="0.75"/>
      </g>
    </g>
  </g>
</svg>
